<svg width="565" height="562" viewBox="0 0 565 562" fill="none" xmlns="http://www.w3.org/2000/svg">
<path fill-rule="evenodd" clip-rule="evenodd" d="M272.194 2.83238C333.163 -2.77786 397.973 -1.56556 451.177 20.5094C505.409 43.0112 564.406 79.3966 564.997 124.321C565.622 171.788 466.627 192.341 454.052 238.947C442.537 281.623 524.014 322.077 500.804 362.233C479.166 399.669 408.152 410.117 352.103 415.33C300.292 420.148 253.798 397.678 202.675 389.958C145.933 381.391 75.9237 397.034 35.1497 367.472C-5.43405 338.048 -4.39126 288.268 6.33273 247.606C15.6518 212.272 70.4761 193.658 89.7468 160.457C110.114 125.367 86.6317 80.1861 120.485 50.9388C156.528 19.7997 216.216 7.98335 272.194 2.83238Z" fill="#24517E"/>
<path fill-rule="evenodd" clip-rule="evenodd" d="M306.629 270.048C351.9 263.766 398.714 286.589 425.828 315.633C450.278 341.824 434.522 376.463 436.224 408.866C438.065 443.912 460.938 480.914 436.042 510.088C408.205 542.71 355.896 568.042 306.629 560.735C259.689 553.773 249.915 505.955 218.473 477.818C191.087 453.311 135.739 441.402 136.923 408.866C138.106 376.348 194.608 367.24 223.351 343.728C253.462 319.098 263.73 276 306.629 270.048Z" fill="#F7F7F7"/>
</svg>
