<svg width="446" height="540" viewBox="0 0 446 540" fill="none" xmlns="http://www.w3.org/2000/svg">
<g filter="url(#filter0_d_54_5)">
<path fill-rule="evenodd" clip-rule="evenodd" d="M204.051 13.74C247.075 -2.61865 296.574 -4.97763 338.926 13.2273C383.067 32.2018 434.034 65.7022 440.685 115.458C447.922 169.607 387.386 207.292 371.837 259.462C362.208 291.772 372.243 325.676 368.027 359.25C361.603 410.413 376.162 473.241 340.548 508.659C306.729 542.292 249.754 531.337 204.051 522.324C162.468 514.124 118.094 496.844 94.1666 460.071C71.1022 424.625 95.6657 374.34 81.5268 334.024C70.7923 303.415 34.767 289.983 23.8118 259.462C10.516 222.419 -6.29183 177.183 13.0423 143.224C32.4448 109.144 83.9569 119.612 115.672 98.1128C149.681 75.058 166.014 28.2023 204.051 13.74Z" fill="#455D46" fill-opacity="0.7" shape-rendering="crispEdges"/>
</g>
<defs>
<filter id="filter0_d_54_5" x="0.282715" y="0.5" width="445" height="539" filterUnits="userSpaceOnUse" color-interpolation-filters="sRGB">
<feFlood flood-opacity="0" result="BackgroundImageFix"/>
<feColorMatrix in="SourceAlpha" type="matrix" values="0 0 0 0 0 0 0 0 0 0 0 0 0 0 0 0 0 0 127 0" result="hardAlpha"/>
<feOffset dy="4"/>
<feGaussianBlur stdDeviation="2"/>
<feComposite in2="hardAlpha" operator="out"/>
<feColorMatrix type="matrix" values="0 0 0 0 0 0 0 0 0 0 0 0 0 0 0 0 0 0 0.25 0"/>
<feBlend mode="normal" in2="BackgroundImageFix" result="effect1_dropShadow_54_5"/>
<feBlend mode="normal" in="SourceGraphic" in2="effect1_dropShadow_54_5" result="shape"/>
</filter>
</defs>
</svg>
